<mxfile host="app.diagrams.net" agent="Mozilla/5.0 (X11; Linux x86_64; rv:136.0) Gecko/20100101 Firefox/136.0" version="26.1.1">
  <diagram name="Page-1" id="A63oh-J3jxHIHeNH-Dc5">
    <mxGraphModel dx="2449" dy="1501" grid="1" gridSize="10" guides="1" tooltips="1" connect="1" arrows="1" fold="1" page="0" pageScale="1" pageWidth="850" pageHeight="1100" math="0" shadow="0">
      <root>
        <mxCell id="0" />
        <mxCell id="1" parent="0" />
        <mxCell id="pToZL_-OLNMwHl6TpGQw-9" style="edgeStyle=orthogonalEdgeStyle;rounded=0;orthogonalLoop=1;jettySize=auto;html=1;fontSize=12;shape=link;strokeColor=#666666;" edge="1" parent="1" source="pToZL_-OLNMwHl6TpGQw-1" target="pToZL_-OLNMwHl6TpGQw-3">
          <mxGeometry relative="1" as="geometry" />
        </mxCell>
        <mxCell id="pToZL_-OLNMwHl6TpGQw-10" value="&lt;div&gt;1.Send Events&lt;/div&gt;&lt;div&gt;&lt;br&gt;&lt;/div&gt;" style="edgeLabel;html=1;align=center;verticalAlign=middle;resizable=0;points=[];fontSize=12;" vertex="1" connectable="0" parent="pToZL_-OLNMwHl6TpGQw-9">
          <mxGeometry x="-0.2857" y="-1" relative="1" as="geometry">
            <mxPoint x="-1" y="-4" as="offset" />
          </mxGeometry>
        </mxCell>
        <mxCell id="pToZL_-OLNMwHl6TpGQw-1" value="&lt;div&gt;Windows 10 Client &lt;br&gt;&lt;/div&gt;&lt;div&gt;Wazuh Agent&lt;/div&gt;" style="verticalAlign=top;verticalLabelPosition=bottom;labelPosition=center;align=center;html=1;outlineConnect=0;fillColor=#f8cecc;strokeColor=#b85450;gradientDirection=north;strokeWidth=2;shape=mxgraph.networks.pc;gradientColor=#ea6b66;" vertex="1" parent="1">
          <mxGeometry x="160" y="304" width="100" height="70" as="geometry" />
        </mxCell>
        <mxCell id="pToZL_-OLNMwHl6TpGQw-25" style="edgeStyle=none;curved=1;rounded=0;orthogonalLoop=1;jettySize=auto;html=1;entryX=1;entryY=0.25;entryDx=0;entryDy=0;fontSize=12;shape=link;fillColor=#ffe6cc;strokeColor=#d79b00;strokeWidth=1;" edge="1" parent="1" source="pToZL_-OLNMwHl6TpGQw-2" target="pToZL_-OLNMwHl6TpGQw-5">
          <mxGeometry relative="1" as="geometry" />
        </mxCell>
        <mxCell id="pToZL_-OLNMwHl6TpGQw-27" value="&lt;div&gt;7. Send &amp;amp; Receive Email&lt;/div&gt;" style="edgeLabel;html=1;align=center;verticalAlign=middle;resizable=0;points=[];fontSize=12;" vertex="1" connectable="0" parent="pToZL_-OLNMwHl6TpGQw-25">
          <mxGeometry x="-0.072" y="-1" relative="1" as="geometry">
            <mxPoint x="10" y="-11" as="offset" />
          </mxGeometry>
        </mxCell>
        <mxCell id="pToZL_-OLNMwHl6TpGQw-28" style="rounded=0;orthogonalLoop=1;jettySize=auto;html=1;entryX=1;entryY=1;entryDx=0;entryDy=0;fontSize=12;fillColor=#e51400;strokeColor=#B20000;shape=link;" edge="1" parent="1">
          <mxGeometry relative="1" as="geometry">
            <mxPoint x="410.0004860795102" y="114.89" as="sourcePoint" />
            <mxPoint x="237.8534482758621" y="-58.49793103448279" as="targetPoint" />
            <Array as="points">
              <mxPoint x="320" y="141.5" />
              <mxPoint x="300" y="81.5" />
            </Array>
          </mxGeometry>
        </mxCell>
        <mxCell id="pToZL_-OLNMwHl6TpGQw-29" value="&lt;div&gt;8.Send respond Action&lt;/div&gt;&lt;div&gt;&lt;br&gt;&lt;/div&gt;" style="edgeLabel;html=1;align=center;verticalAlign=middle;resizable=0;points=[];fontSize=12;" vertex="1" connectable="0" parent="pToZL_-OLNMwHl6TpGQw-28">
          <mxGeometry x="0.0404" y="-2" relative="1" as="geometry">
            <mxPoint x="10" y="23" as="offset" />
          </mxGeometry>
        </mxCell>
        <mxCell id="pToZL_-OLNMwHl6TpGQw-2" value="SOC Analyst" style="fontColor=#0066CC;verticalAlign=top;verticalLabelPosition=bottom;labelPosition=center;align=center;html=1;outlineConnect=0;fillColor=#CCCCCC;strokeColor=#6881B3;gradientColor=none;gradientDirection=north;strokeWidth=2;shape=mxgraph.networks.pc;" vertex="1" parent="1">
          <mxGeometry x="410" y="110" width="100" height="70" as="geometry" />
        </mxCell>
        <mxCell id="pToZL_-OLNMwHl6TpGQw-14" style="edgeStyle=orthogonalEdgeStyle;rounded=0;orthogonalLoop=1;jettySize=auto;html=1;entryX=0.5;entryY=1;entryDx=0;entryDy=0;fontSize=12;shape=link;" edge="1" parent="1" source="pToZL_-OLNMwHl6TpGQw-3" target="pToZL_-OLNMwHl6TpGQw-5">
          <mxGeometry relative="1" as="geometry" />
        </mxCell>
        <mxCell id="pToZL_-OLNMwHl6TpGQw-3" value="Router " style="sketch=0;points=[[0.5,0,0],[1,0.5,0],[0.5,1,0],[0,0.5,0],[0.145,0.145,0],[0.8555,0.145,0],[0.855,0.8555,0],[0.145,0.855,0]];verticalLabelPosition=bottom;html=1;verticalAlign=top;aspect=fixed;align=center;pointerEvents=1;shape=mxgraph.cisco19.rect;prIcon=router;fillColor=#FAFAFA;strokeColor=#005073;" vertex="1" parent="1">
          <mxGeometry x="200" y="158" width="50" height="50" as="geometry" />
        </mxCell>
        <mxCell id="pToZL_-OLNMwHl6TpGQw-16" style="edgeStyle=orthogonalEdgeStyle;rounded=0;orthogonalLoop=1;jettySize=auto;html=1;fontSize=12;shape=link;fillColor=#d5e8d4;strokeColor=#82b366;" edge="1" parent="1" source="pToZL_-OLNMwHl6TpGQw-5" target="pToZL_-OLNMwHl6TpGQw-7">
          <mxGeometry relative="1" as="geometry" />
        </mxCell>
        <mxCell id="pToZL_-OLNMwHl6TpGQw-17" value="&lt;div&gt;2.Receive events&lt;/div&gt;&lt;div&gt;&lt;br&gt;&lt;/div&gt;" style="edgeLabel;html=1;align=center;verticalAlign=middle;resizable=0;points=[];fontSize=12;" vertex="1" connectable="0" parent="pToZL_-OLNMwHl6TpGQw-16">
          <mxGeometry x="0.1167" y="1" relative="1" as="geometry">
            <mxPoint as="offset" />
          </mxGeometry>
        </mxCell>
        <mxCell id="pToZL_-OLNMwHl6TpGQw-30" style="edgeStyle=none;curved=1;rounded=0;orthogonalLoop=1;jettySize=auto;html=1;entryX=0;entryY=1;entryDx=0;entryDy=0;fontSize=12;fillColor=#e51400;strokeColor=#B20000;shape=link;" edge="1" parent="1" source="pToZL_-OLNMwHl6TpGQw-5" target="pToZL_-OLNMwHl6TpGQw-8">
          <mxGeometry relative="1" as="geometry">
            <Array as="points">
              <mxPoint x="150" y="-110" />
            </Array>
          </mxGeometry>
        </mxCell>
        <mxCell id="pToZL_-OLNMwHl6TpGQw-5" value="Internet" style="image;aspect=fixed;perimeter=ellipsePerimeter;html=1;align=center;shadow=0;dashed=0;spacingTop=3;image=img/lib/active_directory/internet_cloud.svg;" vertex="1" parent="1">
          <mxGeometry x="210" y="-90" width="50" height="31.5" as="geometry" />
        </mxCell>
        <mxCell id="pToZL_-OLNMwHl6TpGQw-6" value="TheHive" style="image;aspect=fixed;perimeter=ellipsePerimeter;html=1;align=center;shadow=0;dashed=0;spacingTop=3;image=img/lib/active_directory/internet_cloud.svg;" vertex="1" parent="1">
          <mxGeometry x="380" y="-90" width="50" height="31.5" as="geometry" />
        </mxCell>
        <mxCell id="pToZL_-OLNMwHl6TpGQw-18" style="edgeStyle=none;curved=1;rounded=0;orthogonalLoop=1;jettySize=auto;html=1;entryX=0;entryY=0.75;entryDx=0;entryDy=0;fontSize=12;shape=link;fillColor=#dae8fc;strokeColor=#6c8ebf;" edge="1" parent="1" source="pToZL_-OLNMwHl6TpGQw-7" target="pToZL_-OLNMwHl6TpGQw-8">
          <mxGeometry relative="1" as="geometry" />
        </mxCell>
        <mxCell id="pToZL_-OLNMwHl6TpGQw-19" value="&lt;div&gt;3.Send Alerts&lt;/div&gt;" style="edgeLabel;html=1;align=center;verticalAlign=middle;resizable=0;points=[];fontSize=12;" vertex="1" connectable="0" parent="pToZL_-OLNMwHl6TpGQw-18">
          <mxGeometry x="0.1089" relative="1" as="geometry">
            <mxPoint as="offset" />
          </mxGeometry>
        </mxCell>
        <mxCell id="pToZL_-OLNMwHl6TpGQw-33" style="edgeStyle=orthogonalEdgeStyle;rounded=0;orthogonalLoop=1;jettySize=auto;html=1;fontSize=12;fillColor=#e51400;strokeColor=#B20000;shape=link;" edge="1" parent="1" source="pToZL_-OLNMwHl6TpGQw-7" target="pToZL_-OLNMwHl6TpGQw-1">
          <mxGeometry relative="1" as="geometry">
            <Array as="points">
              <mxPoint x="45" y="339" />
            </Array>
          </mxGeometry>
        </mxCell>
        <mxCell id="pToZL_-OLNMwHl6TpGQw-34" value="9.Perform Responsive Action" style="edgeLabel;html=1;align=center;verticalAlign=middle;resizable=0;points=[];fontSize=12;" vertex="1" connectable="0" parent="pToZL_-OLNMwHl6TpGQw-33">
          <mxGeometry x="-0.12" y="-1" relative="1" as="geometry">
            <mxPoint as="offset" />
          </mxGeometry>
        </mxCell>
        <mxCell id="pToZL_-OLNMwHl6TpGQw-7" value="Wazuh Manager " style="image;aspect=fixed;perimeter=ellipsePerimeter;html=1;align=center;shadow=0;dashed=0;spacingTop=3;image=img/lib/active_directory/internet_cloud.svg;" vertex="1" parent="1">
          <mxGeometry x="20" y="-90" width="50" height="31.5" as="geometry" />
        </mxCell>
        <mxCell id="pToZL_-OLNMwHl6TpGQw-20" style="edgeStyle=orthogonalEdgeStyle;rounded=0;orthogonalLoop=1;jettySize=auto;html=1;fontSize=12;shape=link;fillColor=#f8cecc;strokeColor=#b85450;" edge="1" parent="1" source="pToZL_-OLNMwHl6TpGQw-8" target="pToZL_-OLNMwHl6TpGQw-5">
          <mxGeometry relative="1" as="geometry" />
        </mxCell>
        <mxCell id="pToZL_-OLNMwHl6TpGQw-21" value="&lt;div&gt;4.Enrich IOCS&lt;/div&gt;" style="edgeLabel;html=1;align=center;verticalAlign=middle;resizable=0;points=[];fontSize=12;" vertex="1" connectable="0" parent="pToZL_-OLNMwHl6TpGQw-20">
          <mxGeometry x="0.2487" relative="1" as="geometry">
            <mxPoint y="1" as="offset" />
          </mxGeometry>
        </mxCell>
        <mxCell id="pToZL_-OLNMwHl6TpGQw-22" style="rounded=0;orthogonalLoop=1;jettySize=auto;html=1;fontSize=12;entryX=0.5;entryY=0;entryDx=0;entryDy=0;shape=link;fillColor=#e1d5e7;strokeColor=#9673a6;" edge="1" parent="1" source="pToZL_-OLNMwHl6TpGQw-8" target="pToZL_-OLNMwHl6TpGQw-6">
          <mxGeometry relative="1" as="geometry">
            <mxPoint x="400" y="-204" as="targetPoint" />
          </mxGeometry>
        </mxCell>
        <mxCell id="pToZL_-OLNMwHl6TpGQw-23" value="&lt;div&gt;5.Send Alerts&lt;/div&gt;" style="edgeLabel;html=1;align=center;verticalAlign=middle;resizable=0;points=[];fontSize=12;" vertex="1" connectable="0" parent="pToZL_-OLNMwHl6TpGQw-22">
          <mxGeometry x="-0.319" y="1" relative="1" as="geometry">
            <mxPoint y="-1" as="offset" />
          </mxGeometry>
        </mxCell>
        <mxCell id="pToZL_-OLNMwHl6TpGQw-24" style="rounded=0;orthogonalLoop=1;jettySize=auto;html=1;fontSize=12;shape=link;fillColor=#ffe6cc;strokeColor=#d79b00;entryX=1;entryY=0.25;entryDx=0;entryDy=0;" edge="1" parent="1" target="pToZL_-OLNMwHl6TpGQw-5">
          <mxGeometry relative="1" as="geometry">
            <mxPoint x="234.5" y="-190" as="sourcePoint" />
            <mxPoint x="234.5" y="-91.5" as="targetPoint" />
            <Array as="points">
              <mxPoint x="330" y="-90" />
            </Array>
          </mxGeometry>
        </mxCell>
        <mxCell id="pToZL_-OLNMwHl6TpGQw-26" value="&lt;div&gt;6.Email&lt;/div&gt;" style="edgeLabel;html=1;align=center;verticalAlign=middle;resizable=0;points=[];fontSize=12;" vertex="1" connectable="0" parent="pToZL_-OLNMwHl6TpGQw-24">
          <mxGeometry x="-0.071" y="-3" relative="1" as="geometry">
            <mxPoint as="offset" />
          </mxGeometry>
        </mxCell>
        <mxCell id="pToZL_-OLNMwHl6TpGQw-8" value="Shuffle" style="image;aspect=fixed;perimeter=ellipsePerimeter;html=1;align=center;shadow=0;dashed=0;spacingTop=3;image=img/lib/active_directory/internet_cloud.svg;" vertex="1" parent="1">
          <mxGeometry x="210" y="-220" width="50" height="31.5" as="geometry" />
        </mxCell>
        <mxCell id="pToZL_-OLNMwHl6TpGQw-31" style="edgeStyle=orthogonalEdgeStyle;rounded=0;orthogonalLoop=1;jettySize=auto;html=1;entryX=0.4;entryY=0.317;entryDx=0;entryDy=0;entryPerimeter=0;fontSize=12;fillColor=#e51400;strokeColor=#B20000;shape=link;" edge="1" parent="1" source="pToZL_-OLNMwHl6TpGQw-8" target="pToZL_-OLNMwHl6TpGQw-7">
          <mxGeometry relative="1" as="geometry" />
        </mxCell>
        <mxCell id="pToZL_-OLNMwHl6TpGQw-36" style="edgeStyle=none;curved=1;rounded=0;orthogonalLoop=1;jettySize=auto;html=1;fontSize=12;startSize=8;endSize=8;" edge="1" parent="1">
          <mxGeometry relative="1" as="geometry">
            <mxPoint x="-20" y="590" as="targetPoint" />
            <mxPoint x="-120" y="590" as="sourcePoint" />
          </mxGeometry>
        </mxCell>
        <mxCell id="pToZL_-OLNMwHl6TpGQw-35" value="&lt;div&gt;Windows 10&lt;/div&gt;&lt;div&gt;Send Events&lt;/div&gt;&lt;div&gt;&lt;br&gt;&lt;/div&gt;" style="text;html=1;align=center;verticalAlign=middle;resizable=0;points=[];autosize=1;strokeColor=none;fillColor=none;fontSize=16;" vertex="1" parent="1">
          <mxGeometry x="-220" y="560" width="110" height="70" as="geometry" />
        </mxCell>
        <mxCell id="pToZL_-OLNMwHl6TpGQw-39" style="edgeStyle=none;curved=1;rounded=0;orthogonalLoop=1;jettySize=auto;html=1;fontSize=12;startSize=8;endSize=8;" edge="1" parent="1" source="pToZL_-OLNMwHl6TpGQw-37" target="pToZL_-OLNMwHl6TpGQw-38">
          <mxGeometry relative="1" as="geometry" />
        </mxCell>
        <mxCell id="pToZL_-OLNMwHl6TpGQw-37" value="&lt;div&gt;Wazuh Manager&lt;/div&gt;&lt;div&gt;Trigger alerts &amp;amp; Perform response actions&lt;/div&gt;" style="text;html=1;align=center;verticalAlign=middle;resizable=0;points=[];autosize=1;strokeColor=none;fillColor=none;fontSize=16;" vertex="1" parent="1">
          <mxGeometry x="-60" y="570" width="320" height="50" as="geometry" />
        </mxCell>
        <mxCell id="pToZL_-OLNMwHl6TpGQw-41" style="edgeStyle=none;curved=1;rounded=0;orthogonalLoop=1;jettySize=auto;html=1;fontSize=12;startSize=8;endSize=8;exitX=0.449;exitY=-0.02;exitDx=0;exitDy=0;exitPerimeter=0;" edge="1" parent="1" source="pToZL_-OLNMwHl6TpGQw-38" target="pToZL_-OLNMwHl6TpGQw-40">
          <mxGeometry relative="1" as="geometry" />
        </mxCell>
        <mxCell id="pToZL_-OLNMwHl6TpGQw-38" value="&lt;div&gt;Shuffle&lt;/div&gt;&lt;div&gt;Receive Wazuh Alerts &amp;amp; Send responsive actions&lt;/div&gt;" style="text;html=1;align=center;verticalAlign=middle;resizable=0;points=[];autosize=1;strokeColor=none;fillColor=none;fontSize=16;" vertex="1" parent="1">
          <mxGeometry x="370" y="560" width="370" height="50" as="geometry" />
        </mxCell>
        <mxCell id="pToZL_-OLNMwHl6TpGQw-40" value="&lt;div&gt;OSINT&lt;/div&gt;&lt;div&gt;Enrich IOCS&lt;/div&gt;&lt;div&gt;&lt;br&gt;&lt;/div&gt;" style="text;html=1;align=center;verticalAlign=middle;resizable=0;points=[];autosize=1;strokeColor=none;fillColor=none;fontSize=16;" vertex="1" parent="1">
          <mxGeometry x="480" y="340" width="110" height="70" as="geometry" />
        </mxCell>
        <mxCell id="pToZL_-OLNMwHl6TpGQw-42" value="&lt;div&gt;TheHive&lt;/div&gt;&lt;div&gt;Create alert in case management&lt;/div&gt;" style="text;html=1;align=center;verticalAlign=middle;resizable=0;points=[];autosize=1;strokeColor=none;fillColor=none;fontSize=16;" vertex="1" parent="1">
          <mxGeometry x="420" y="670" width="260" height="50" as="geometry" />
        </mxCell>
        <mxCell id="pToZL_-OLNMwHl6TpGQw-44" style="edgeStyle=none;curved=1;rounded=0;orthogonalLoop=1;jettySize=auto;html=1;entryX=0.481;entryY=1.02;entryDx=0;entryDy=0;entryPerimeter=0;fontSize=12;startSize=8;endSize=8;" edge="1" parent="1" source="pToZL_-OLNMwHl6TpGQw-42" target="pToZL_-OLNMwHl6TpGQw-38">
          <mxGeometry relative="1" as="geometry" />
        </mxCell>
        <mxCell id="pToZL_-OLNMwHl6TpGQw-45" value="&lt;div&gt;Email&lt;/div&gt;&lt;div&gt;Send email&amp;amp; resposonsive action&lt;/div&gt;" style="text;html=1;align=center;verticalAlign=middle;resizable=0;points=[];autosize=1;strokeColor=none;fillColor=none;fontSize=16;" vertex="1" parent="1">
          <mxGeometry x="820" y="570" width="260" height="50" as="geometry" />
        </mxCell>
        <mxCell id="pToZL_-OLNMwHl6TpGQw-46" style="edgeStyle=none;curved=1;rounded=0;orthogonalLoop=1;jettySize=auto;html=1;entryX=0.173;entryY=0.18;entryDx=0;entryDy=0;entryPerimeter=0;fontSize=12;startSize=8;endSize=8;" edge="1" parent="1" source="pToZL_-OLNMwHl6TpGQw-38" target="pToZL_-OLNMwHl6TpGQw-45">
          <mxGeometry relative="1" as="geometry" />
        </mxCell>
      </root>
    </mxGraphModel>
  </diagram>
</mxfile>
